<svg xml:space="preserve" viewBox="0 0 100 100" y="0px" x="0px" xmlns:xlink="http://www.w3.org/1999/xlink" xmlns="http://www.w3.org/2000/svg" id="圖層_1" version="1.1" style="height: 100%; width: 100%; background: rgba(255, 255, 255,0);" width="200px" height="200px"><g class="ldl-scale" style="transform-origin: 50% 50%; transform: rotate(0deg) scale(0.8, 0.8);"><g class="ldl-ani"><g class="ldl-layer"><g class="ldl-ani"><g><g class="ldl-layer"><g class="ldl-ani" style="transform-origin: 50px 50px; transform: scale(0.91); animation: 0.247525s linear -0.12995s infinite normal forwards running breath-f6c0e957-1566-4b80-a4a7-8c81c0d52d61;"><circle r="13.69" cy="22.23" cx="29.63" fill="#F7B26A" style="fill: rgb(247, 178, 106);"></circle></g></g><g class="ldl-layer"><g class="ldl-ani" style="transform-origin: 50px 50px; transform: scale(0.91); animation: 0.247525s linear -0.136139s infinite normal forwards running breath-f6c0e957-1566-4b80-a4a7-8c81c0d52d61;"><circle r="7.47" cy="22.23" cx="29.63" fill="#FFFFFF" style="fill: rgb(255, 255, 255);"></circle></g></g></g></g></g><g class="ldl-layer"><g class="ldl-ani"><g><g class="ldl-layer"><g class="ldl-ani" style="transform-origin: 50px 50px; transform: scale(0.91); animation: 0.247525s linear -0.142327s infinite normal forwards running breath-f6c0e957-1566-4b80-a4a7-8c81c0d52d61;"><circle r="7.47" cy="22.23" cx="70.37" fill="#FFFFFF" style="fill: rgb(255, 255, 255);"></circle></g></g><g class="ldl-layer"><g class="ldl-ani" style="transform-origin: 50px 50px; transform: scale(0.91); animation: 0.247525s linear -0.148515s infinite normal forwards running breath-f6c0e957-1566-4b80-a4a7-8c81c0d52d61;"><circle r="13.69" cy="22.23" cx="70.37" fill="#F7B26A" style="fill: rgb(247, 178, 106);"></circle></g></g><g class="ldl-layer"><g class="ldl-ani" style="transform-origin: 50px 50px; transform: scale(0.91); animation: 0.247525s linear -0.154703s infinite normal forwards running breath-f6c0e957-1566-4b80-a4a7-8c81c0d52d61;"><circle r="7.47" cy="22.23" cx="70.37" fill="#FFFFFF" style="fill: rgb(255, 255, 255);"></circle></g></g></g></g></g><g class="ldl-layer"><g class="ldl-ani" style="transform-origin: 50px 50px; transform: scale(0.91); animation: 0.247525s linear -0.160891s infinite normal forwards running breath-f6c0e957-1566-4b80-a4a7-8c81c0d52d61;"><path d="M50,65.95c-13.71,0-26.11,2.52-35.04,6.58v2.44v2.18V90l4.7-3.82l3.21-2.61v5.15v2.57l2.45-1.32l4.88-2.63 c0,0,0.3,3.96,6.87,3.96c3.07,0,17.97,0,25.91,0c6.57,0,6.87-3.96,6.87-3.96l4.88,2.63l2.45,1.32v-2.57v-5.15l3.21,2.61l4.7,3.82 V77.14v-2.18v-2.42C76.15,68.48,63.73,65.95,50,65.95z" fill="#F4E6C8" style="fill: rgb(244, 230, 200);"></path></g></g><g class="ldl-layer"><g class="ldl-ani" style="transform-origin: 50px 50px; transform: scale(0.91); animation: 0.247525s linear -0.167079s infinite normal forwards running breath-f6c0e957-1566-4b80-a4a7-8c81c0d52d61;"><path d="M78.07,22.39H21.96c-3.87,0-7,3.13-7,7v35.29v7.84c8.92-4.06,21.32-6.58,35.04-6.58 c13.73,0,26.15,2.53,35.07,6.6v-7.86V29.39C85.07,25.53,81.94,22.39,78.07,22.39z" fill="#F7B26A" style="fill: rgb(247, 178, 106);"></path></g></g><g class="ldl-layer"><g class="ldl-ani" style="transform-origin: 50px 50px; transform: scale(0.91); animation: 0.247525s linear -0.173267s infinite normal forwards running breath-f6c0e957-1566-4b80-a4a7-8c81c0d52d61;"><ellipse ry="5.25" rx="4.77" cy="46.13" cx="33.67" style=""></ellipse></g></g><g class="ldl-layer"><g class="ldl-ani" style="transform-origin: 50px 50px; transform: scale(0.91); animation: 0.247525s linear -0.179455s infinite normal forwards running breath-f6c0e957-1566-4b80-a4a7-8c81c0d52d61;"><ellipse ry="5.25" rx="4.77" cy="46.13" cx="66.37" style=""></ellipse></g></g><g class="ldl-layer"><g class="ldl-ani" style="transform-origin: 50px 50px; transform: scale(0.91); animation: 0.247525s linear -0.185644s infinite normal forwards running breath-f6c0e957-1566-4b80-a4a7-8c81c0d52d61;"><ellipse ry="14.75" rx="17.47" cy="65.95" cx="50.02" fill="#F4E6C8" style="fill: rgb(244, 230, 200);"></ellipse></g></g><g class="ldl-layer"><g class="ldl-ani" style="transform-origin: 50px 50px; transform: scale(0.91); animation: 0.247525s linear -0.191832s infinite normal forwards running breath-f6c0e957-1566-4b80-a4a7-8c81c0d52d61;"><path d="M75.84,47.37c3.08,1.17,6.16,2.34,9.24,3.51v-8.25c-3.08,1.11-6.15,2.21-9.23,3.32C75.34,46.14,75.33,47.18,75.84,47.37z" style=""></path></g></g><g class="ldl-layer"><g class="ldl-ani" style="transform-origin: 50px 50px; transform: scale(0.91); animation: 0.247525s linear -0.19802s infinite normal forwards running breath-f6c0e957-1566-4b80-a4a7-8c81c0d52d61;"><path d="M74.19,59.19c3.63,0.95,7.26,1.9,10.88,2.85v-6.68c-3.63,0.9-7.25,1.79-10.88,2.69C73.6,58.2,73.6,59.04,74.19,59.19z" style=""></path></g></g><g class="ldl-layer"><g class="ldl-ani" style="transform-origin: 50px 50px; transform: scale(0.91); animation: 0.247525s linear -0.204208s infinite normal forwards running breath-f6c0e957-1566-4b80-a4a7-8c81c0d52d61;"><path d="M24.2,47.37c-3.08,1.17-6.16,2.34-9.24,3.51v-8.25c3.08,1.11,6.15,2.21,9.23,3.32C24.7,46.14,24.71,47.18,24.2,47.37z" style=""></path></g></g><g class="ldl-layer"><g class="ldl-ani" style="transform-origin: 50px 50px; transform: scale(0.91); animation: 0.247525s linear -0.210396s infinite normal forwards running breath-f6c0e957-1566-4b80-a4a7-8c81c0d52d61;"><path d="M25.85,59.19c-3.63,0.95-7.26,1.9-10.88,2.85v-6.68c3.63,0.9,7.25,1.79,10.88,2.69C26.43,58.2,26.44,59.04,25.85,59.19z" style=""></path></g></g><g class="ldl-layer"><g class="ldl-ani" style="transform-origin: 50px 50px; transform: scale(0.91); animation: 0.247525s linear -0.216584s infinite normal forwards running breath-f6c0e957-1566-4b80-a4a7-8c81c0d52d61;"><path d="M40.55,62.49c-1.37,1.07-2.25,2.73-2.25,4.61c0,3.23,2.62,5.85,5.85,5.85S50,70.33,50,67.09c0,3.23,2.62,5.85,5.85,5.85 c3.23,0,5.85-2.62,5.85-5.85c0-1.87-0.88-3.54-2.25-4.61" stroke-miterlimit="10" stroke-linejoin="round" stroke-linecap="round" stroke-width="3.5" stroke="#000000" fill="#F4E6C8" style="fill: rgb(244, 230, 200);"></path></g></g><g class="ldl-layer"><g class="ldl-ani" style="transform-origin: 50px 50px; transform: scale(0.91); animation: 0.247525s linear -0.222772s infinite normal forwards running breath-f6c0e957-1566-4b80-a4a7-8c81c0d52d61;"><line y2="67.16" x2="50.02" y1="59.7" x1="50.02" stroke-miterlimit="10" stroke-linecap="round" stroke-width="3.5" stroke="#000000" fill="none" style=""></line></g></g><g class="ldl-layer"><g class="ldl-ani" style="transform-origin: 50px 50px; transform: scale(0.91); animation: 0.247525s linear -0.22896s infinite normal forwards running breath-f6c0e957-1566-4b80-a4a7-8c81c0d52d61;"><ellipse ry="4.11" rx="5.16" cy="59.15" cx="50.02" style=""></ellipse></g></g><g class="ldl-layer"><g class="ldl-ani" style="transform-origin: 50px 50px; transform: scale(0.91); animation: 0.247525s linear -0.235149s infinite normal forwards running breath-f6c0e957-1566-4b80-a4a7-8c81c0d52d61;"><line y2="29.02" x2="57" y1="29.02" x1="43" stroke-miterlimit="10" stroke-linejoin="round" stroke-linecap="round" stroke-width="3.5" stroke="#000000" fill="none" style=""></line></g></g><g class="ldl-layer"><g class="ldl-ani" style="transform-origin: 50px 50px; transform: scale(0.91); animation: 0.247525s linear -0.241337s infinite normal forwards running breath-f6c0e957-1566-4b80-a4a7-8c81c0d52d61;"><line y2="35.02" x2="55" y1="35.02" x1="45" stroke-miterlimit="10" stroke-linejoin="round" stroke-linecap="round" stroke-width="3.5" stroke="#000000" fill="none" style=""></line></g></g><g class="ldl-layer"><g class="ldl-ani" style="transform-origin: 50px 50px; transform: scale(0.91); animation: 0.247525s linear -0.247525s infinite normal forwards running breath-f6c0e957-1566-4b80-a4a7-8c81c0d52d61;"><line y2="35.02" x2="50" y1="29.02" x1="50" stroke-miterlimit="10" stroke-linejoin="round" stroke-linecap="round" stroke-width="3.5" stroke="#000000" fill="none" style=""></line></g></g><metadata xmlns:d="https://loading.io/stock/">
<d:name>animal</d:name>
<d:tags>animal,cute,tiger,zoo,cats</d:tags>
<d:license>by</d:license>
<d:slug>iextze</d:slug>
</metadata></g></g></svg>